<svg xmlns="http://www.w3.org/2000/svg" xmlns:xlink="http://www.w3.org/1999/xlink" version="1.1" x="0px" y="0px" style="enable-background:new 0 0 100 100;" xml:space="preserve" viewBox="15.17 10 69.64 79.99"><path d="M84.65,30c-0.11-0.19-0.27-0.33-0.45-0.44c-0.02-0.01-0.02-0.03-0.04-0.04l-33.5-19.34c-0.41-0.24-0.91-0.24-1.32,0 l-33.5,19.34c-0.02,0.01-0.03,0.03-0.05,0.05c-0.16,0.1-0.3,0.23-0.41,0.4c-0.02,0.03-0.03,0.06-0.05,0.08 c-0.09,0.17-0.13,0.35-0.14,0.53c0,0.03-0.02,0.05-0.02,0.07v38.68c0,0.47,0.25,0.91,0.66,1.14l33.5,19.34 c0.02,0.01,0.05,0.01,0.07,0.02c0.18,0.09,0.37,0.15,0.58,0.16c0.01,0,0.01,0,0.02,0c0,0,0,0,0,0c0,0,0,0,0,0 c0.22,0,0.42-0.07,0.6-0.16c0.02-0.01,0.04,0,0.05-0.01l33.5-19.34c0.41-0.23,0.66-0.67,0.66-1.14V30.66c0-0.02-0.01-0.03-0.01-0.04 C84.8,30.41,84.76,30.2,84.65,30z M48.69,86.4L17.82,68.58V32.94l30.87,17.81V86.4z M50.01,48.47L19.14,30.66L50,12.84l30.86,17.82 L50.01,48.47z M82.18,68.58L51.32,86.39V50.76l30.86-17.81V68.58z"></path><path d="M49.9,25.27c-4.63,0-8.25,2.37-8.25,5.39c0,3.02,3.62,5.39,8.25,5.39s8.25-2.37,8.25-5.39 C58.15,27.64,54.53,25.27,49.9,25.27z M49.9,33.41c-3.21,0-5.61-1.45-5.61-2.75c0-1.3,2.4-2.75,5.61-2.75s5.61,1.45,5.61,2.75 C55.51,31.96,53.11,33.41,49.9,33.41z"></path><path d="M24.84,52.89c2.28,0,4.06-2.63,4.06-5.99c0-3.36-1.79-5.99-4.06-5.99c-2.28,0-4.06,2.63-4.06,5.99 C20.77,50.25,22.56,52.89,24.84,52.89z M24.84,43.54c0.5,0,1.43,1.28,1.43,3.36c0,2.08-0.92,3.35-1.43,3.35 c-0.5,0-1.43-1.27-1.43-3.35C23.41,44.81,24.33,43.54,24.84,43.54z"></path><path d="M24.84,69.04c2.28,0,4.06-2.63,4.06-5.99c0-3.36-1.79-5.99-4.06-5.99c-2.28,0-4.06,2.63-4.06,5.99 C20.77,66.41,22.56,69.04,24.84,69.04z M24.84,59.7c0.5,0,1.43,1.28,1.43,3.36s-0.92,3.35-1.43,3.35c-0.5,0-1.43-1.27-1.43-3.35 S24.33,59.7,24.84,59.7z"></path><path d="M41.5,62.24c2.28,0,4.06-2.63,4.06-5.99c0-3.36-1.79-5.99-4.06-5.99c-2.28,0-4.06,2.63-4.06,5.99 C37.44,59.6,39.22,62.24,41.5,62.24z M41.5,52.89c0.5,0,1.43,1.28,1.43,3.36c0,2.08-0.92,3.36-1.43,3.36c-0.5,0-1.43-1.28-1.43-3.36 C40.08,54.16,41,52.89,41.5,52.89z"></path><path d="M41.5,78.4c2.28,0,4.06-2.63,4.06-5.99s-1.79-5.99-4.06-5.99c-2.28,0-4.06,2.63-4.06,5.99S39.22,78.4,41.5,78.4z M41.5,69.04c0.5,0,1.43,1.28,1.43,3.36c0,2.08-0.92,3.36-1.43,3.36c-0.5,0-1.43-1.28-1.43-3.36C40.08,70.32,41,69.04,41.5,69.04z"></path><path d="M75.16,52.89c2.28,0,4.06-2.63,4.06-5.99c0-3.36-1.79-5.99-4.06-5.99c-2.28,0-4.06,2.63-4.06,5.99 C71.09,50.25,72.88,52.89,75.16,52.89z M75.16,43.54c0.5,0,1.43,1.28,1.43,3.36c0,2.08-0.92,3.35-1.43,3.35 c-0.5,0-1.43-1.27-1.43-3.35C73.73,44.81,74.65,43.54,75.16,43.54z"></path><path d="M58.49,78.4c2.28,0,4.06-2.63,4.06-5.99s-1.79-5.99-4.06-5.99c-2.28,0-4.06,2.63-4.06,5.99S56.21,78.4,58.49,78.4z M58.49,69.04c0.5,0,1.43,1.28,1.43,3.36c0,2.08-0.92,3.36-1.43,3.36c-0.5,0-1.43-1.28-1.43-3.36 C57.06,70.32,57.99,69.04,58.49,69.04z"></path><path d="M66.95,65.33c2.28,0,4.06-2.63,4.06-5.99c0-3.36-1.79-5.99-4.06-5.99c-2.28,0-4.06,2.63-4.06,5.99 C62.89,62.7,64.67,65.33,66.95,65.33z M66.95,55.98c0.5,0,1.43,1.27,1.43,3.35c0,2.08-0.92,3.36-1.43,3.36 c-0.5,0-1.43-1.28-1.43-3.36C65.53,57.25,66.45,55.98,66.95,55.98z"></path></svg>