<svg xmlns="http://www.w3.org/2000/svg" xmlns:xlink="http://www.w3.org/1999/xlink" version="1.1" x="0px" y="0px" style="enable-background:new 0 0 100 100;" xml:space="preserve" viewBox="1.8 1.4 96.6 97.2"><path d="M28.1,50.5L46.6,69c1.8,1.8,4.8,1.8,6.7,0L72,50.6c0.9-0.9,1.4-2.1,1.4-3.4c0-1.3-0.5-2.4-1.4-3.3 c-0.9-0.9-2.1-1.4-3.3-1.4c-1.3,0-2.5,0.5-3.4,1.4L55,54V6.4c0-2.8-2.2-5-5-5s-5,2.2-5,5v47.7L34.8,43.9C33,42,30,42,28.1,43.9 c-0.9,0.9-1.4,2.1-1.4,3.3C26.7,48.4,27.2,49.6,28.1,50.5z"></path><path d="M88.7,70.4v19.1H11.3V70.4H1.8V94c0,2.5,2.1,4.6,4.8,4.6h87c2.6,0,4.8-2,4.8-4.6V70.4H88.7z"></path></svg>