<svg xmlns="http://www.w3.org/2000/svg" version="1.1" viewBox="4.4 34.1 91.2 35.2">  <path d="m19.555 34.102h16.844c3.9023 0 7.293 1.9062 9.3828 4.7812h8.4375c2.0898-2.875 5.4805-4.7812 9.3828-4.7812h28.398c0.95312 0 1.8711 0.37891 2.5469 1.0547 0.67578 0.67188 1.0547 1.5898 1.0547 2.543v4c0 1.9883-1.6133 3.6016-3.6016 3.6016h-0.007812c0.027343 0.81641-0.03125 1.6523-0.1875 2.4961l-1.6016 8.7227c-1.3594 7.4023-7.8125 12.781-15.344 12.781h-5.7188c-7.5312 0-13.984-5.3789-15.344-12.781l-1.6016-8.7227c-0.007812-0.046875-0.019531-0.089844-0.027343-0.13672-0.12109-0.050781-0.24609-0.10547-0.36719-0.16797-0.73047-0.37109-1.3438-0.53906-1.8008-0.53906-0.58594 0-1.3516 0.26953-2.1758 0.74219l-0.019531 0.10156-1.6016 8.7227c-1.3594 7.4023-7.8125 12.781-15.344 12.781h-5.7188c-7.5312 0-13.984-5.3789-15.344-12.781l-1.6016-8.7227c-0.15625-0.84375-0.21484-1.6797-0.19141-2.4961h-0.003906c-1.9883 0-3.6016-1.6133-3.6016-3.6016v-4c0-0.95312 0.37891-1.8711 1.0547-2.543 0.67578-0.67578 1.5938-1.0547 2.5469-1.0547zm60.844 7.1992h-16.797c-2.7461 0-4.8242 2.4922-4.3242 5.1953l1.6016 8.7227c0.73047 3.9883 4.207 6.8828 8.2617 6.8828h5.7188c4.0547 0 7.5312-2.8945 8.2617-6.8828l1.6016-8.7227c0.5-2.7031-1.5781-5.1953-4.3242-5.1953zm-60.824 0h16.824c2.7461 0 4.8242 2.4922 4.3242 5.1953l-1.6016 8.7227c-0.73047 3.9883-4.207 6.8828-8.2617 6.8828h-5.7188c-4.0547 0-7.5312-2.8945-8.2617-6.8828l-1.6016-8.7227c-0.49609-2.6953 1.5625-5.1758 4.2969-5.1953z" fill-rule="evenodd"></path> </svg>