<svg xmlns="http://www.w3.org/2000/svg" x="0px" y="0px" viewBox="6.09 6.12 35.79 35.79"><title>pen, write, school</title><g><path d="M41,12.62a3,3,0,0,0,0-4.24L39.62,7a3,3,0,0,0-4.24,0L33.26,9.09l5.65,5.65Z"></path><path d="M39.62,18.28,37.5,16.16l-.71-.71L31.84,10.5,9.21,33.13a1.06,1.06,0,0,0-.24.39L7.55,37.77a1,1,0,0,0,.25,1L6.38,40.2A1,1,0,0,0,7.8,41.62L9.21,40.2a1,1,0,0,0,1,.25L14.48,39a1.06,1.06,0,0,0,.39-.24L36.08,17.57,37.5,19l-5,5A1,1,0,1,0,34,25.35l5.66-5.66A1,1,0,0,0,39.62,18.28Z"></path></g></svg>