<svg xmlns="http://www.w3.org/2000/svg" version="1.1" viewBox="2.5 2.5 95 95">  <path d="m29.48 2.5h54.746c7.3125 0 13.273 5.9609 13.273 13.273v68.457c0 7.3125-5.9609 13.273-13.273 13.273l-68.453-0.003906c-7.3125 0-13.273-5.957-13.273-13.273v-54.746c0-3.6016 1.3438-6.8438 3.8867-9.3828l13.707-13.711c2.543-2.543 5.7852-3.8867 9.3828-3.8867zm15.996 22.828v-11.645c0-1.543-1.25-2.793-2.7969-2.793-1.543 0-2.7969 1.25-2.7969 2.793v11.645c0 1.543 1.25 2.7969 2.7969 2.7969 1.543 0 2.7969-1.25 2.7969-2.7969zm35.664-17.238v18.645c0 5.3906-4.3906 9.7773-9.7773 9.7773h-34.895c-5.3906 0-9.7773-4.3906-9.7773-9.7773l-0.003906-18.164c-0.94922 0.36328-1.8281 0.95703-2.6406 1.7656l-13.711 13.711c-1.5391 1.5391-2.25 3.2617-2.25 5.4336v54.746c0 4.2305 3.4531 7.6836 7.6836 7.6836h68.453c4.2305 0 7.6836-3.457 7.6836-7.6836l0.003906-68.453c0-4.2305-3.4531-7.6836-7.6836-7.6836h-3.0898zm-48.863 0v18.645c0 2.3047 1.8867 4.1914 4.1914 4.1914h34.895c2.3047 0 4.1914-1.8867 4.1914-4.1914l-0.003907-18.645zm17.727 41.133c-9.7812 0-17.711 7.9297-17.711 17.711s7.9297 17.711 17.711 17.711 17.711-7.9297 17.711-17.711-7.9297-17.711-17.711-17.711zm8.5703 9.1367c-4.7344-4.7344-12.41-4.7344-17.141 0-4.7344 4.7344-4.7344 12.41 0 17.141 4.7344 4.7344 12.41 4.7344 17.141 0 4.7344-4.7344 4.7344-12.41 0-17.141z" fill-rule="evenodd"></path> </svg>