<svg xmlns="http://www.w3.org/2000/svg" version="1.1" viewBox="6.25 6.26 87.51 87.49"><path d="m8.5508 28.68c1.2734 0 2.3008-1.0312 2.3008-2.3008l0.003907-15.512h15c1.2734 0 2.3008-1.0312 2.3008-2.3008 0-1.2695-1.0312-2.3008-2.3008-2.3008l-15.609-0.003906c-2.2031 0-3.9961 1.793-3.9961 3.9961v16.117c0 1.2695 1.0312 2.3008 2.3008 2.3008z"></path><path d="m89.758 6.2578h-15.613c-3.0234 0.050782-3.0312 4.5547 0 4.6055h14.996v15.52c0.050781 3.0156 4.5508 3.0312 4.6055 0v-16.117c0-2.2109-1.7969-4.0078-3.9922-4.0078z"></path><path d="m25.855 89.137h-15v-15.492c-0.046875-3.0195-4.5547-3.0312-4.6055 0v16.102c0 2.2031 1.793 3.9961 3.9961 3.9961h15.609c3.0195-0.050782 3.0312-4.5508 0-4.6055z"></path><path d="m91.449 71.344c-1.2695 0-2.3008 1.0312-2.3008 2.3008v15.492h-15c-1.2695 0-2.3008 1.0312-2.3008 2.3008s1.0312 2.3008 2.3008 2.3008h15.613c2.2031 0 3.9961-1.793 3.9961-3.9961v-16.102c0-1.2695-1.0312-2.3008-2.3008-2.3008z"></path><path d="m76.098 64.035v-20.234c0-3.2539-2.6562-5.9102-5.9102-5.9102h-8.0898c-0.13672 0-0.29297-0.078125-0.32422-0.23047l-1.0742-4.3281c-0.59766-2.1641-2.5781-3.668-4.7734-3.668h-11.852c-2.2422 0-4.2539 1.5664-4.7891 3.7305l-1.0586 4.2812c-0.03125 0.13672-0.18359 0.21484-0.32422 0.21484h-8.0898c-3.2539 0-5.9102 2.6562-5.9102 5.9102v20.234c0 3.2695 2.6562 5.9102 5.9102 5.9102h6.3398c-2.4609-3.0977-3.7969-6.9023-3.8086-10.93 0.96094-23.426 34.352-23.41 35.309 0-0.007813 4.0273-1.3477 7.832-3.8086 10.93h6.3398c3.2539 0 5.9102-2.6406 5.9102-5.9102z"></path><path d="m50 45.969c-9.7617-0.1875-16.293 10.988-11.406 19.371 4.6836 8.875 18.125 8.875 22.812 0 4.8867-8.3828-1.6406-19.562-11.406-19.371zm0 21.492c-4.6289-0.003907-8.4453-3.7773-8.4414-8.4414 0.39062-11.176 16.496-11.172 16.887 0 0.003907 4.668-3.8164 8.4414-8.4414 8.4414z"></path></svg>