<svg xmlns:x="http://ns.adobe.com/Extensibility/1.0/" xmlns:i="http://ns.adobe.com/AdobeIllustrator/10.0/" xmlns:graph="http://ns.adobe.com/Graphs/1.0/" xmlns="http://www.w3.org/2000/svg" xmlns:xlink="http://www.w3.org/1999/xlink" version="1.1" x="0px" y="0px" style="enable-background:new -949 951 100 100;" xml:space="preserve" viewBox="-946.5 960.7 95 80.6"><switch><foreignObject requiredExtensions="http://ns.adobe.com/AdobeIllustrator/10.0/" x="0" y="0" width="1" height="1"></foreignObject><g i:extraneous="self"><g><polygon points="-895.1,960.7 -924.9,983.5 -946.5,985.4 -946.5,985.4 -946.5,1016.6 -924.9,1018.5 -895.1,1041.3"></polygon><path d="M-876.7,974.9l-6.7,6.1c4.8,5.3,7.7,12.3,7.7,20c0,7.7-2.9,14.8-7.7,20l6.7,6.1c6.3-6.9,10.1-16.1,10.1-26.1 C-866.6,991-870.4,981.8-876.7,974.9z"></path><path d="M-865.5,964.7l-6.7,6.1c7.2,8,11.7,18.6,11.7,30.2c0,11.6-4.4,22.2-11.7,30.2l6.7,6.1c8.7-9.6,14-22.3,14-36.3 C-851.5,987-856.8,974.3-865.5,964.7z"></path></g></g></switch></svg>